<svg width="95" height="31" fill="none" xmlns="http://www.w3.org/2000/svg"><path d="M14.124 19.472c0-.969-.341-1.71-1.025-2.222-.684-.524-1.914-1.071-3.691-1.64-1.778-.582-3.185-1.151-4.221-1.71C2.36 12.374.948 10.317.948 7.731c0-1.344.376-2.54 1.128-3.589.764-1.06 1.852-1.885 3.264-2.478 1.424-.592 3.02-.889 4.786-.889 1.777 0 3.36.325 4.75.975 1.39.638 2.467 1.543 3.23 2.717.775 1.173 1.163 2.506 1.163 3.999h-5.127c0-1.14-.36-2.022-1.077-2.65-.718-.637-1.726-.956-3.025-.956-1.253 0-2.227.268-2.922.803-.695.524-1.043 1.22-1.043 2.085 0 .809.405 1.487 1.214 2.034.82.547 2.022 1.06 3.606 1.538 2.916.877 5.041 1.965 6.374 3.264 1.333 1.299 2 2.917 2 4.854 0 2.153-.815 3.845-2.444 5.075-1.63 1.22-3.823 1.829-6.58 1.829-1.914 0-3.657-.348-5.23-1.043-1.572-.706-2.774-1.669-3.605-2.888C.59 21.192.18 19.78.18 18.173h5.143c0 2.746 1.64 4.119 4.922 4.119 1.22 0 2.17-.245 2.854-.735.684-.502 1.025-1.197 1.025-2.085zm29.036-5.35c0 2.325-.376 4.347-1.128 6.067-.752 1.71-1.794 3.082-3.127 4.12l4.136 3.246-3.265 2.888-5.298-4.255c-.603.103-1.23.154-1.88.154-2.061 0-3.901-.496-5.52-1.487-1.617-.991-2.87-2.404-3.76-4.238-.888-1.846-1.338-3.965-1.35-6.358v-1.23c0-2.45.44-4.603 1.317-6.46.888-1.869 2.136-3.298 3.742-4.29C28.645 1.277 30.491.775 32.565.775c2.073 0 3.913.502 5.52 1.504 1.617.992 2.865 2.421 3.742 4.29.889 1.857 1.333 4.005 1.333 6.443v1.11zm-5.195-1.127c0-2.61-.467-4.592-1.402-5.948-.934-1.355-2.267-2.033-3.998-2.033-1.72 0-3.048.672-3.982 2.016-.935 1.333-1.407 3.293-1.419 5.88v1.213c0 2.54.467 4.511 1.401 5.913.935 1.401 2.28 2.102 4.034 2.102 1.72 0 3.042-.673 3.965-2.017.922-1.356 1.39-3.327 1.4-5.913v-1.213zm26.882 3.896h-4.084V26h-5.127V1.117h9.245c2.94 0 5.207.655 6.802 1.966 1.595 1.31 2.393 3.161 2.393 5.554 0 1.697-.37 3.116-1.111 4.255-.73 1.128-1.84 2.028-3.333 2.7l5.384 10.169V26h-5.503l-4.666-9.109zm-4.084-4.153h4.135c1.288 0 2.285-.324 2.991-.974.707-.66 1.06-1.566 1.06-2.717 0-1.174-.336-2.096-1.009-2.769-.66-.672-1.68-1.008-3.059-1.008h-4.118v7.468zm21.72-1.367h2.633c1.253 0 2.181-.313 2.785-.94.604-.626.906-1.458.906-2.495 0-1.003-.302-1.783-.906-2.341-.592-.559-1.412-.838-2.46-.838-.946 0-1.738.262-2.376.786-.638.513-.957 1.185-.957 2.017h-4.94c0-1.299.348-2.46 1.043-3.486.707-1.037 1.687-1.846 2.94-2.427 1.264-.581 2.654-.872 4.17-.872 2.632 0 4.694.633 6.186 1.897 1.493 1.254 2.24 2.985 2.24 5.196 0 1.139-.348 2.187-1.043 3.144-.695.957-1.607 1.692-2.735 2.205 1.402.501 2.444 1.253 3.128 2.256.695 1.002 1.042 2.187 1.042 3.554 0 2.21-.809 3.982-2.427 5.315-1.606 1.333-3.737 2-6.391 2-2.484 0-4.518-.655-6.101-1.965-1.573-1.31-2.359-3.043-2.359-5.196h4.94c0 .934.347 1.698 1.042 2.29.706.593 1.572.889 2.597.889 1.174 0 2.091-.308 2.752-.923.672-.627 1.008-1.453 1.008-2.478 0-2.484-1.367-3.726-4.101-3.726h-2.615v-3.862z" fill="#fff"/></svg>