<svg width="68" height="23" fill="none" xmlns="http://www.w3.org/2000/svg"><path d="M10.803 14.337c0-.692-.244-1.22-.732-1.587-.488-.374-1.367-.765-2.637-1.172-1.27-.415-2.274-.822-3.015-1.22-2.018-1.091-3.027-2.56-3.027-4.407 0-.96.268-1.815.805-2.564.546-.757 1.323-1.347 2.332-1.77C5.546 1.194 6.685.982 7.947.982c1.27 0 2.4.232 3.393.696.993.456 1.762 1.103 2.308 1.941.553.838.83 1.79.83 2.857h-3.663c0-.814-.256-1.445-.769-1.893-.512-.455-1.233-.683-2.16-.683-.895 0-1.591.191-2.088.574-.496.374-.744.87-.744 1.489 0 .578.289 1.062.866 1.453.586.39 1.445.756 2.576 1.098 2.083.627 3.601 1.404 4.553 2.332.953.927 1.428 2.083 1.428 3.466 0 1.539-.581 2.747-1.745 3.626-1.164.87-2.73 1.306-4.7 1.306-1.367 0-2.612-.248-3.735-.744-1.123-.505-1.982-1.193-2.576-2.064-.586-.87-.879-1.88-.879-3.027h3.675c0 1.961 1.171 2.942 3.515 2.942.871 0 1.55-.175 2.039-.525.488-.358.732-.854.732-1.49zm20.74-3.82c0 1.66-.269 3.104-.806 4.333-.537 1.22-1.281 2.2-2.234 2.941l2.954 2.32-2.331 2.063-3.784-3.04c-.431.073-.88.11-1.343.11-1.473 0-2.787-.354-3.943-1.062-1.155-.708-2.05-1.717-2.685-3.027-.635-1.319-.957-2.832-.965-4.541v-.88c0-1.749.314-3.287.94-4.613.635-1.335 1.526-2.356 2.674-3.064C21.175 1.34 22.494.982 23.974.982s2.795.358 3.942 1.075c1.156.708 2.047 1.729 2.674 3.064.635 1.326.952 2.86.952 4.602v.793zm-3.711-.807c0-1.863-.334-3.28-1-4.248-.668-.968-1.62-1.452-2.857-1.452-1.23 0-2.177.48-2.845 1.44-.667.952-1.005 2.352-1.013 4.2v.866c0 1.815.334 3.223 1.001 4.224.668 1 1.628 1.501 2.881 1.501 1.229 0 2.173-.48 2.832-1.44.66-.969.993-2.377 1.001-4.224V9.71zm19.202 2.784h-2.918V19h-3.662V1.227h6.604c2.1 0 3.72.467 4.858 1.403 1.14.936 1.71 2.259 1.71 3.968 0 1.212-.265 2.225-.794 3.04-.52.805-1.314 1.448-2.38 1.928l3.845 7.263V19h-3.93l-3.333-6.506zm-2.918-2.967h2.954c.92 0 1.632-.232 2.136-.695.505-.472.757-1.12.757-1.941 0-.839-.24-1.498-.72-1.978-.472-.48-1.2-.72-2.185-.72h-2.942v5.334zm15.515-.976h1.88c.895 0 1.559-.224 1.99-.672.431-.447.647-1.041.647-1.782 0-.716-.216-1.273-.647-1.672-.423-.399-1.01-.598-1.758-.598-.675 0-1.24.187-1.697.561-.455.366-.683.847-.683 1.44h-3.528c0-.927.248-1.757.745-2.49.504-.74 1.204-1.318 2.1-1.733.903-.415 1.895-.623 2.978-.623 1.88 0 3.353.452 4.419 1.355 1.066.896 1.599 2.133 1.599 3.711a3.74 3.74 0 01-.745 2.246 4.838 4.838 0 01-1.953 1.575c1.001.358 1.746.895 2.234 1.611.496.717.745 1.563.745 2.54 0 1.578-.578 2.844-1.734 3.796-1.147.952-2.67 1.428-4.565 1.428-1.774 0-3.227-.468-4.358-1.404-1.123-.936-1.685-2.172-1.685-3.71h3.528c0 .667.248 1.212.745 1.635.504.423 1.123.635 1.855.635.838 0 1.493-.22 1.965-.66.48-.447.72-1.037.72-1.77 0-1.773-.976-2.66-2.929-2.66h-1.868V8.55z" fill="#000"/></svg>