<svg width="32" height="32" fill="none" xmlns="http://www.w3.org/2000/svg"><rect width="32" height="32" rx="16" fill="#fff"/><path d="M21.265 16.7c-.155 0-.316-.05-.47-.084a6.64 6.64 0 01-.921-.274 1.405 1.405 0 00-1.742.702l-.155.316a8.558 8.558 0 01-1.869-1.405 8.558 8.558 0 01-1.405-1.869l.295-.196a1.405 1.405 0 00.703-1.742 7.246 7.246 0 01-.274-.92 5.224 5.224 0 01-.085-.479A2.108 2.108 0 0013.235 9h-2.108a2.108 2.108 0 00-2.107 2.396 13.348 13.348 0 0011.605 11.563h.267a2.108 2.108 0 001.926-1.248 2.12 2.12 0 00.182-.866v-2.108a2.107 2.107 0 00-1.735-2.037zm.351 4.215a.702.702 0 01-.508.676c-.1.03-.204.04-.307.026a11.943 11.943 0 01-10.334-10.383.765.765 0 01.176-.576.702.702 0 01.526-.239h2.108a.703.703 0 01.703.555 7.808 7.808 0 00.428 1.658l-.983.457a.703.703 0 00-.345.934 10.18 10.18 0 004.918 4.918c.171.07.363.07.534 0a.702.702 0 00.4-.365l.436-.984c.363.13.734.238 1.11.323.187.042.377.078.569.106a.703.703 0 01.555.702l.014 2.192z" fill="#373737"/></svg>