<svg width="32" height="26" fill="none" xmlns="http://www.w3.org/2000/svg"><path d="M31 1.013a14.986 14.986 0 01-4.282 2.047 6.13 6.13 0 00-3.127-1.88 6.222 6.222 0 00-3.66.214 6.09 6.09 0 00-2.877 2.233A5.91 5.91 0 0016 7.072V8.41a14.772 14.772 0 01-6.912-1.518 14.46 14.46 0 01-5.36-4.541s-5.455 12.038 6.818 17.388A16.1 16.1 0 011 22.414c12.273 6.687 27.273 0 27.273-15.382a5.896 5.896 0 00-.11-1.11A10.277 10.277 0 0031 1.013v0z" stroke="#fff" stroke-width="2" stroke-linecap="round" stroke-linejoin="round"/></svg>